<svg width="605" height="152" viewBox="0 0 605 152" fill="none" xmlns="http://www.w3.org/2000/svg">
<g id="logo / hor / raiffaizen">
<path id="Vector" d="M72.9629 27.7246H167.918V123.15H72.9629V27.7246Z" fill="#FFED00"/>
<g id="Group">
<path id="Vector_2" d="M282.928 85.6979L280.478 100.898H295.24L297.69 85.6979H308.55L301.895 126.586H291.126L293.939 109.045H279.177L276.364 126.586H265.474L272.25 85.6979H283.049H282.928ZM325.944 85.6979H314.6L307.794 126.586H318.926L321.951 108.924L333.446 126.708H347.875L332.75 105.154L353.017 85.8195H339.405L323.1 102.661L325.944 85.6979ZM248.806 111.264L246.447 98.1923L239.641 111.264H248.806ZM250.44 119.381H235.073L230.989 126.464H219.131L242.333 85.5763H254.433L263.81 126.464H251.983L250.44 119.381ZM221.249 114.183C220.929 116.93 219.79 119.515 217.981 121.6C213.656 126.069 207.092 126.312 202.857 126.434H186.552L193.6 85.6979H221.37L220.069 93.6931H203.22L201.919 101.81H206.728C210.829 101.522 214.898 102.695 218.224 105.124C219.473 106.248 220.409 107.681 220.94 109.28C221.47 110.88 221.576 112.59 221.249 114.244V114.183ZM203.673 109.44H200.648L199.136 118.165H201.949C208.271 118.165 209.572 116.402 209.935 114.031C210.298 111.66 209.935 109.44 203.613 109.44H203.673ZM484.938 47.8195H496.191C495.934 46.5573 495.238 45.4273 494.23 44.6315C493.223 43.8353 491.968 43.4246 490.685 43.4723C489.357 43.3361 488.029 43.7082 486.964 44.5141C485.9 45.32 485.174 46.5005 484.938 47.8195ZM505.175 52.4707V53.5347H484.786C484.69 54.3567 484.777 55.1903 485.05 55.9722C485.319 56.7544 485.76 57.4651 486.344 58.0503C486.925 58.6355 487.633 59.0806 488.41 59.3514C489.188 59.6226 490.02 59.7126 490.836 59.6147C491.768 59.6944 492.703 59.4904 493.517 59.0295C494.33 58.5686 494.99 57.8722 495.404 57.0307H504.782C503.269 63.6275 497.159 66.5763 490.957 66.5763C481.882 66.5763 475.137 61.4083 475.137 51.7411C475.022 49.7314 475.336 47.7201 476.062 45.8432C476.785 43.9663 477.905 42.2676 479.335 40.8616C480.769 39.4553 482.487 38.3745 484.372 37.6924C486.257 37.0099 488.265 36.7418 490.262 36.9059C499.76 36.9059 505.145 42.9859 505.145 52.4707H505.175ZM236.252 45.0531C235.42 45.0109 234.588 45.1422 233.808 45.4383C233.028 45.7347 232.318 46.1895 231.722 46.7747C231.125 47.3599 230.656 48.0624 230.342 48.8388C230.029 49.6149 229.878 50.4476 229.9 51.2851C229.879 52.1093 230.026 52.9288 230.33 53.6946C230.634 54.4601 231.09 55.1553 231.67 55.7384C232.25 56.3212 232.942 56.7796 233.704 57.0851C234.466 57.391 235.281 57.5381 236.101 57.5171C236.93 57.5706 237.76 57.4463 238.536 57.152C239.313 56.8577 240.018 56.4005 240.605 55.8108C241.191 55.221 241.646 54.5124 241.939 53.732C242.232 52.9516 242.356 52.1175 242.302 51.2851C242.323 50.461 242.177 49.6414 241.873 48.8756C241.568 48.1101 241.112 47.4149 240.532 46.8318C239.952 46.249 239.261 45.7906 238.499 45.4851C237.737 45.1793 236.921 45.0321 236.101 45.0531H236.252ZM251.68 37.3923V65.2083H242V62.1683C241.084 63.4807 239.851 64.5377 238.417 65.2396C236.983 65.9416 235.395 66.2656 233.802 66.1811C231.926 66.1349 230.078 65.7114 228.366 64.9362C226.655 64.1607 225.116 63.049 223.839 61.6667C222.562 60.2841 221.573 58.6586 220.931 56.8863C220.288 55.1137 220.006 53.2298 220.099 51.3459C219.997 49.4684 220.27 47.5894 220.902 45.8195C221.533 44.0493 222.51 42.4241 223.775 41.0391C225.041 39.6541 226.569 38.5372 228.27 37.7544C229.971 36.9716 231.811 36.5384 233.681 36.4803C235.245 36.4435 236.799 36.7478 238.235 37.3722C239.671 37.997 240.956 38.9266 242 40.0979V37.3923H251.68ZM393.401 45.0531C392.581 45.0321 391.765 45.1793 391.002 45.4851C390.243 45.7906 389.55 46.249 388.97 46.8318C388.389 47.4149 387.935 48.1101 387.63 48.8756C387.324 49.6414 387.179 50.461 387.2 51.2851C387.179 52.1093 387.324 52.9288 387.63 53.6946C387.935 54.4601 388.389 55.1553 388.97 55.7384C389.55 56.3212 390.243 56.7796 391.002 57.0851C391.765 57.391 392.581 57.5381 393.401 57.5171C394.23 57.5706 395.059 57.4463 395.836 57.152C396.614 56.8577 397.319 56.4005 397.905 55.8108C398.492 55.221 398.946 54.5124 399.239 53.732C399.533 52.9516 399.657 52.1175 399.602 51.2851C399.624 50.461 399.478 49.6414 399.173 48.8756C398.867 48.1101 398.414 47.4149 397.833 46.8318C397.252 46.249 396.559 45.7906 395.8 45.4851C395.038 45.1793 394.221 45.0321 393.401 45.0531ZM408.889 37.3923V65.2083H399.3V62.1683C398.383 63.4807 397.152 64.5377 395.718 65.2396C394.285 65.9416 392.696 66.2656 391.102 66.1811C389.227 66.1349 387.378 65.7114 385.666 64.9362C383.954 64.1607 382.414 63.049 381.138 61.6667C379.861 60.2841 378.872 58.6586 378.231 56.8863C377.59 55.1137 377.305 53.2298 377.399 51.3459C377.302 49.4684 377.577 47.5903 378.213 45.8216C378.848 44.0533 379.828 42.4302 381.099 41.0482C382.366 39.6659 383.897 38.5527 385.6 37.7735C387.3 36.9941 389.142 36.5648 391.011 36.5107C392.6 36.4599 394.176 36.7603 395.637 37.3908C397.095 38.021 398.396 38.9661 399.451 40.1587V37.3923H408.889ZM188.064 65.2083V24.3203H204.49C215.501 24.3203 218.677 32.2243 218.677 37.7571C218.754 39.6188 218.434 41.4753 217.738 43.2024C217.043 44.9294 215.988 46.4871 214.645 47.7712C213.301 49.055 211.7 50.0354 209.949 50.6467C208.197 51.2581 206.336 51.4861 204.49 51.3155H198.44V65.2083H188.064ZM198.501 33.1667V42.5603H202.01C206.819 42.5603 207.273 39.5203 207.273 37.9699C207.273 36.4195 206.577 33.3795 202.01 33.3795H198.985L198.622 33.1667H198.501ZM257.821 37.4227V65.2387H267.198L276.818 50.0387V65.2387H286.558V37.3923H277.181L267.561 52.3491V37.3923L257.821 37.4227ZM272.946 33.8963C275.228 34.0808 277.51 33.5516 279.482 32.3818C281.453 31.2117 283.016 29.4578 283.957 27.3603L277.634 24.9891C277.4 26.0094 276.811 26.9124 275.974 27.5363C275.137 28.1601 274.106 28.4642 273.067 28.3939C272.024 28.477 270.988 28.1778 270.148 27.5519C269.308 26.926 268.722 26.0155 268.499 24.9891L262.177 27.3603C263.13 29.4177 264.68 31.1372 266.624 32.2927C268.567 33.4485 270.813 33.9863 273.067 33.8355L272.946 33.8963ZM306.584 77.3075V65.6643C300.836 65.6643 291.217 63.2931 291.217 51.2851C291.217 39.2771 300.715 37.0275 306.584 37.0275V24.8675H316.324V37.0275C322.193 37.0275 331.449 39.3987 331.449 51.2851C331.449 63.1715 321.951 65.6643 316.324 65.6643V77.4595L306.584 77.3075ZM315.659 43.8675V59.3107C318.956 59.3107 322.223 56.9395 322.223 51.5283C322.223 46.1171 318.926 43.7459 315.659 43.8675ZM307.219 59.0675V43.8675C303.922 43.8675 300.655 46.2387 300.655 51.6499C300.655 57.0611 303.952 59.3107 307.219 59.1891V59.0675ZM350.234 77.4291V65.6643C344.487 65.6643 334.867 63.2931 334.867 51.2851C334.867 39.2771 344.366 37.0275 350.234 37.0275V24.8675H359.975V37.0275C365.843 37.0275 375.342 39.3987 375.342 51.2851C375.342 63.1715 365.843 65.6643 359.975 65.6643V77.4595H350.234V77.4291ZM359.309 43.9891V59.4323C362.607 59.4323 365.874 57.0611 365.874 51.6499C365.874 46.2387 362.576 43.8675 359.309 43.9891ZM350.749 59.1891V43.9891C347.451 43.9891 344.063 46.3603 344.063 51.7715C343.973 52.7218 344.085 53.68 344.39 54.5841C344.693 55.4882 345.186 56.3175 345.83 57.0176C346.474 57.7177 347.261 58.2732 348.135 58.6474C349.009 59.0216 349.95 59.2061 350.9 59.1891H350.749ZM415.242 37.3923V65.2083H424.619L434.239 50.0083V65.2083H443.979V37.3923H434.602L424.861 52.2275V37.3923H415.242ZM430.367 33.8659C432.611 34.0079 434.844 33.4622 436.774 32.3003C438.701 31.1387 440.234 29.4161 441.166 27.3603L434.844 24.9891C434.608 26.0094 434.021 26.9124 433.183 27.5363C432.345 28.1601 431.317 28.4642 430.276 28.3939C429.232 28.4903 428.189 28.1963 427.345 27.5682C426.504 26.9401 425.92 26.0219 425.708 24.9891L419.356 27.3603C420.309 29.4177 421.86 31.1372 423.802 32.2927C425.748 33.4485 427.992 33.9863 430.246 33.8355L430.367 33.8659ZM451.239 45.3875C453.342 43.9241 455.822 43.1008 458.378 43.0163C459.558 43.0163 462.25 43.2595 462.25 45.4787C462.25 47.6979 459.891 47.8499 458.983 47.8499H454.173V53.9299H458.408C459.83 53.9299 462.401 53.9299 462.401 56.3011C462.401 57.2435 461.827 59.0067 458.408 59.0067C455.441 58.9997 452.543 58.0999 450.09 56.4227L447.7 63.0803C451.481 65.2618 455.774 66.3948 460.133 66.3635C471.265 66.3635 472.686 59.8883 472.686 57.7603C472.699 56.1373 472.142 54.5619 471.113 53.311C470.082 52.0597 468.648 51.2134 467.06 50.9203C468.291 50.364 469.329 49.4502 470.043 48.2962C470.753 47.1425 471.104 45.8016 471.053 44.4451C471.053 37.9699 464.247 36.6627 460.042 36.6627C456.1 36.736 452.222 37.6586 448.668 39.3683L451.239 45.3875ZM510.075 65.1779H519.816V54.1123H528.74V65.1779H538.45V37.3923H528.709V47.1811H519.786V37.3923H510.045L510.075 65.1779Z" fill="black"/>
<path id="Vector_3" d="M171.215 126.464H69.5752V24.3203H171.215V126.464ZM167.918 27.7251H72.9632V123.151H167.918V27.7251Z" fill="black"/>
<path id="Vector_4" d="M120.456 87.0963L91.2649 116.432L79.6489 104.759L108.901 75.4531L102.851 69.3731V57.2131L98.6156 52.9571V63.4451L94.9857 67.0931L80.1027 52.3795L76.4727 56.0275C76.4923 52.7592 77.1548 49.5271 78.4214 46.5169C79.6882 43.5067 81.5341 40.7777 83.8537 38.4867C86.0925 35.9657 89.2267 34.4289 92.5814 34.207C95.9364 33.9854 99.2439 35.0965 101.792 37.3011L116.554 52.2579L112.803 56.0275L120.456 63.8403L128.2 56.0579L124.449 52.2883L139.151 37.2707C141.695 35.0585 145.005 33.9425 148.362 34.1645C151.719 34.3864 154.855 35.9283 157.089 38.4563C159.408 40.7473 161.254 43.4763 162.521 46.4865C163.788 49.4967 164.45 52.7288 164.47 55.9971L160.84 52.3491L145.957 67.1843L142.327 63.5363V52.9571L138.122 57.2131V69.3731L132.072 75.4531L161.263 104.789L149.647 116.432L120.456 87.0963Z" fill="black"/>
</g>
</g>
</svg>
