<svg width="14" height="13" viewBox="0 0 14 13" fill="none" xmlns="http://www.w3.org/2000/svg">
<path d="M8.80983 4.05142L8.86799 4.16932L8.99808 4.18823L12.9645 4.76467C12.9646 4.76469 12.9647 4.7647 12.9648 4.76471C13.1039 4.78552 13.1966 4.91301 13.176 5.04645L13.1756 5.04922C13.1679 5.10304 13.1425 5.15292 13.103 5.19172C13.103 5.1918 13.1029 5.19188 13.1028 5.19196L10.233 7.98995L10.1388 8.0817L10.1611 8.21124L10.8392 12.1628L10.8392 12.163C10.8625 12.2982 10.7717 12.4272 10.6353 12.4507L10.635 12.4508C10.5808 12.4602 10.5248 12.4513 10.4781 12.4264L10.4769 12.4258L6.9285 10.5602L6.81216 10.499L6.69582 10.5602L3.14739 12.4258L3.147 12.426C3.10582 12.4477 3.05937 12.4575 3.01291 12.4542C2.96646 12.4509 2.92186 12.4346 2.88418 12.4073C2.8465 12.3799 2.81724 12.3425 2.79973 12.2994C2.78221 12.2562 2.77713 12.209 2.78507 12.1631L2.78512 12.1628L3.46325 8.21124L3.48548 8.0817L3.39137 7.98995L0.521059 5.19151L0.521043 5.19149C0.473446 5.1451 0.446215 5.0817 0.445335 5.01524C0.444456 4.94893 0.469879 4.88497 0.516029 4.83736C0.554827 4.79791 0.604675 4.77256 0.658456 4.76488L0.659056 4.76479L4.62624 4.18823L4.75634 4.16932L4.8145 4.05142L6.58733 0.457317C6.58742 0.457149 6.5875 0.456982 6.58758 0.456814C6.65003 0.3326 6.80078 0.282604 6.92337 0.343123L6.92366 0.343265C6.97259 0.367339 7.01221 0.406966 7.03629 0.455891L7.03639 0.456107L8.80983 4.05142Z" fill="white" stroke="black" stroke-width="0.5"/>
</svg>
