<svg width="149" height="38" viewBox="0 0 149 38" fill="none" xmlns="http://www.w3.org/2000/svg">
<path d="M134.357 24.1915C134.291 24.1915 134.259 24.1915 134.193 24.2235C134.161 24.2554 134.128 24.3193 134.128 24.3832L133.867 27.6087C133.867 27.7684 133.834 27.8642 133.769 27.96C133.703 28.0558 133.605 28.1197 133.442 28.1197C133.377 28.1197 133.311 28.1197 133.311 28.1836C133.311 28.2155 133.278 28.2794 133.278 28.3433V28.8862C133.278 28.982 133.278 29.0139 133.311 29.0459C133.344 29.0778 133.409 29.0778 133.475 29.0778C133.867 29.0778 134.161 29.0459 134.39 28.982C134.586 28.8862 134.749 28.7584 134.847 28.5349C134.945 28.3433 134.978 28.0239 135.011 27.6406L135.174 25.2454H136.383V28.8542C136.383 28.95 136.383 28.982 136.448 29.0139C136.481 29.0458 136.546 29.0459 136.612 29.0459H137.363C137.429 29.0459 137.494 29.0458 137.527 29.0139C137.559 28.982 137.592 28.9181 137.592 28.8542V24.4151C137.592 24.3193 137.592 24.2554 137.527 24.2554C137.494 24.2235 137.429 24.1915 137.363 24.2235H134.357V24.1915ZM46.613 10.9059C46.5477 10.8101 46.4496 10.7781 46.2535 10.7781H39.8157C39.685 10.7781 39.5543 10.8101 39.4889 10.874C39.3909 10.9378 39.3582 11.0337 39.3582 11.2253V20.0717C39.3582 20.1994 39.3582 20.3272 39.4563 20.3911C39.5216 20.4869 39.6197 20.5188 39.8157 20.5188H43.6719C44.9791 20.5188 45.9595 20.2633 46.6457 19.7523C47.332 19.2414 47.6588 18.4748 47.6588 17.389C47.6588 16.3671 47.332 15.6006 46.7111 15.0896C46.0575 14.6105 45.0771 14.355 43.7372 14.355H41.7765V12.7583H46.3189C46.4823 12.7583 46.5803 12.7263 46.6784 12.6624C46.7437 12.5666 46.7764 12.4708 46.7764 12.3431V11.2253C46.7111 11.0656 46.7111 10.9698 46.613 10.9059ZM44.9791 16.5587C45.2405 16.7184 45.3712 17.0058 45.3385 17.3571C45.3385 17.7403 45.2078 18.0278 44.9137 18.1874C44.6523 18.3471 44.2274 18.4429 43.6392 18.4429H41.7111V16.3032H43.6719C44.2928 16.3032 44.7176 16.399 44.9791 16.5587ZM52.2338 10.9059C52.1358 10.9698 52.0704 11.0975 52.0051 11.2572L48.6392 20.1036C48.6064 20.1994 48.5738 20.2953 48.6064 20.3591C48.6392 20.455 48.7372 20.4869 48.9006 20.5188H50.4691C50.6325 20.5188 50.7633 20.5188 50.8287 20.423C50.9267 20.3591 50.9921 20.2314 51.0574 20.0717L51.4822 18.89H55.175L55.5998 20.0717C55.6652 20.2314 55.7305 20.3591 55.7959 20.423C55.8939 20.4869 55.9919 20.5188 56.1553 20.5188H57.724C57.8874 20.5188 57.9854 20.455 57.9854 20.3591C58.0181 20.2633 58.0181 20.1994 57.9854 20.1036L54.6521 11.2572C54.5868 11.0975 54.5214 11.0017 54.4234 10.9059C54.3253 10.8101 54.1946 10.7781 54.0312 10.7781H52.5933C52.4626 10.7781 52.3319 10.8101 52.2338 10.9059ZM54.456 16.8142H52.2012L53.345 13.5566L54.456 16.8142ZM67.3644 10.874C67.2663 10.8101 67.1683 10.7781 67.0376 10.7781H65.567C65.4363 10.7781 65.3055 10.8101 65.2402 10.874C65.1422 10.9378 65.1095 11.0337 65.1095 11.2253V14.5786H61.7435V11.1933C61.7435 11.0337 61.7109 10.9059 61.6128 10.842C61.5475 10.7781 61.4494 10.7462 61.286 10.7462H59.8155C59.6847 10.7462 59.554 10.7781 59.4887 10.842C59.3906 10.9059 59.3579 11.0017 59.3579 11.1933V20.0398C59.3579 20.1994 59.3906 20.3272 59.4887 20.3911C59.554 20.455 59.6521 20.4869 59.8155 20.4869H61.286C61.4494 20.4869 61.5475 20.4869 61.6128 20.3911C61.7109 20.3272 61.7435 20.2314 61.7435 20.0398V16.7503H65.1095V20.0717C65.1095 20.2314 65.1422 20.3591 65.2402 20.423C65.3383 20.4869 65.4363 20.5188 65.567 20.5188H67.0376C67.1683 20.5188 67.299 20.5188 67.3644 20.423C67.4297 20.3591 67.4624 20.2633 67.4624 20.0717V11.1933C67.4951 11.0337 67.4624 10.9378 67.3644 10.874ZM78.0177 10.7781H75.959C75.7954 10.7781 75.6653 10.7781 75.5671 10.842C75.4689 10.874 75.338 11.0017 75.2071 11.1295L72.0702 14.5147V11.1933C72.0702 11.0337 72.0375 10.9059 71.9721 10.842C71.9068 10.7781 71.8087 10.7462 71.6781 10.7462H70.1748C70.0441 10.7462 69.9134 10.7781 69.848 10.842C69.75 10.9059 69.7173 11.0017 69.7173 11.1933V20.0398C69.7173 20.1994 69.75 20.3272 69.848 20.3911C69.9134 20.455 70.0114 20.4869 70.1748 20.4869H71.6781C71.8087 20.4869 71.9068 20.4869 71.9721 20.3911C72.0375 20.3272 72.0702 20.2314 72.0702 20.0398V17.4529L73.0179 16.4948C73.214 16.8461 73.4427 17.1974 73.7042 17.6126C73.9656 18.0278 74.1944 18.411 74.3905 18.7623C74.6188 19.1136 74.8152 19.433 74.9461 19.6565C75.077 19.912 75.1417 20.0078 75.1744 20.0398C75.2726 20.1994 75.3707 20.2953 75.5016 20.3911C75.5998 20.4869 75.7627 20.5188 75.9263 20.5188H77.7567C77.9195 20.5188 77.985 20.455 78.0177 20.3591C78.0504 20.2633 78.0177 20.1356 77.985 20.0398L74.717 14.8022L78.1486 11.1933C78.2141 11.1295 78.2468 11.0337 78.2468 10.9378C78.2141 10.842 78.1486 10.7781 78.0177 10.7781ZM41.1883 24.0638C40.9595 24.0638 40.7307 24.0957 40.502 24.1596C40.2733 24.2235 40.0771 24.3193 39.8484 24.479C39.6523 24.6067 39.4889 24.7983 39.3582 24.9899C39.2275 25.2135 39.1948 25.469 39.1621 25.7564V27.5129C39.1621 27.8003 39.2275 28.0558 39.3582 28.2794C39.4889 28.503 39.6197 28.6626 39.8484 28.7903C40.0445 28.9181 40.2733 29.0139 40.502 29.0778C40.7307 29.1417 40.9595 29.1736 41.1883 29.1736C41.417 29.1736 41.6458 29.1417 41.8745 29.0778C42.1033 29.0139 42.2994 28.9181 42.5281 28.7903C42.7242 28.6626 42.8876 28.471 43.0183 28.2794C43.149 28.0878 43.1817 27.8323 43.2144 27.5129V25.7564C43.2144 25.469 43.149 25.2135 43.0183 24.9899C42.8876 24.7983 42.7242 24.6067 42.5281 24.479C42.332 24.3512 42.1033 24.2235 41.8745 24.1596C41.6458 24.0957 41.417 24.0638 41.1883 24.0638ZM40.3386 27.3852V25.8523C40.3386 25.6287 40.4367 25.437 40.5673 25.3093C40.7307 25.1815 40.9268 25.1177 41.1883 25.1177C41.4497 25.1177 41.6458 25.1815 41.8092 25.3093C41.9726 25.437 42.0379 25.6287 42.0379 25.8523V27.3852C42.0379 27.6406 41.9399 27.8003 41.8092 27.9281C41.6458 28.0558 41.4497 28.1197 41.1883 28.1197C40.9268 28.1197 40.7307 28.0558 40.5673 27.9281C40.4367 27.8003 40.3386 27.6087 40.3386 27.3852ZM47.6588 24.1915H44.4235C44.3581 24.1915 44.2928 24.1915 44.2601 24.2235C44.2274 24.2554 44.1947 24.3193 44.1947 24.3832V28.8223C44.1947 28.8862 44.1947 28.95 44.2601 28.982C44.2928 29.0139 44.3581 29.0459 44.4235 29.0459H46.3516C47.0052 29.0459 47.4954 28.9181 47.8222 28.6626C48.149 28.4072 48.3124 27.992 48.3124 27.4809C48.3124 26.97 48.149 26.5867 47.8222 26.3312C47.4954 26.0758 47.0052 25.98 46.3516 25.98H45.3712V25.1815H47.626C47.7241 25.1815 47.7568 25.1496 47.7894 25.1177C47.8222 25.0857 47.8222 25.0218 47.8222 24.958V24.3832C47.8222 24.3193 47.8222 24.2873 47.7894 24.2235C47.7894 24.1915 47.7241 24.1915 47.6588 24.1915ZM45.3712 26.9381H46.3516C46.6457 26.9381 46.8744 26.97 46.9725 27.0658C47.1032 27.1616 47.1686 27.2894 47.1686 27.4809C47.1686 27.6726 47.1032 27.8323 46.9725 27.8961C46.8418 27.992 46.613 28.0239 46.3189 28.0239H45.3712V26.9381ZM50.6325 24.1915H49.162C49.064 24.1915 48.9986 24.1915 48.9986 24.2554C48.9659 24.2873 48.9659 24.3512 48.9659 24.4151V25.0538C48.9659 25.1177 48.9659 25.1815 48.9986 25.2135C49.0313 25.2454 49.0966 25.2773 49.162 25.2773H49.6849V28.8542C49.6849 28.9181 49.6849 28.982 49.7175 29.0139C49.7502 29.0458 49.8156 29.0778 49.8809 29.0778H51.5803C52.2338 29.0778 52.724 28.9181 53.0508 28.6307C53.3776 28.3433 53.541 27.9281 53.541 27.4171C53.541 26.9061 53.3776 26.4909 53.0182 26.2035C52.6587 25.9161 52.2012 25.7884 51.5476 25.7884H50.8287V24.4151C50.8287 24.3193 50.8287 24.2873 50.7633 24.2554C50.7633 24.1915 50.7306 24.1596 50.6325 24.1915ZM51.5803 26.7464C51.8744 26.7464 52.1031 26.8103 52.2338 26.9061C52.3646 27.002 52.4299 27.1616 52.4299 27.3532C52.4299 27.5448 52.3646 27.7045 52.2338 27.8003C52.1031 27.8961 51.8744 27.96 51.5803 27.96H50.8613V26.7145H51.5803V26.7464ZM58.018 24.1915H54.7828C54.6848 24.1915 54.6194 24.1915 54.6194 24.2554C54.5868 24.2873 54.5541 24.3512 54.5541 24.4151V28.8542C54.5541 28.9181 54.5541 28.982 54.6194 29.0139C54.6521 29.0458 54.7175 29.0778 54.7828 29.0778H58.1488C58.2468 29.0778 58.3122 29.0778 58.3122 29.0139C58.3449 28.982 58.3449 28.9181 58.3449 28.8542V28.2475C58.3449 28.1836 58.3449 28.1197 58.3122 28.0878C58.2796 28.0558 58.2142 28.0239 58.1488 28.0239H55.7305V27.0658H57.7566C57.8547 27.0658 57.92 27.0339 57.92 27.002C57.9528 26.97 57.9854 26.9061 57.9528 26.8423V26.2674C57.9528 26.2035 57.9528 26.1396 57.92 26.1077C57.8874 26.0758 57.822 26.0438 57.7566 26.0438H55.7305V25.2454H58.018C58.1161 25.2454 58.1488 25.2454 58.1815 25.1815C58.2142 25.1496 58.2142 25.0857 58.2142 25.0218V24.4151C58.2142 24.3512 58.2142 24.2873 58.1815 24.2554C58.1488 24.1915 58.0834 24.1915 58.018 24.1915ZM63.2141 24.2235C63.1814 24.1915 63.116 24.1596 63.0507 24.1915H60.1423C60.0769 24.1915 60.0115 24.1915 59.9788 24.2235C59.9461 24.2554 59.9135 24.3193 59.9135 24.3832L59.6847 27.449C59.6847 27.5448 59.6521 27.6087 59.6194 27.7045C59.5867 27.8003 59.5213 27.8323 59.456 27.8642C59.3906 27.8961 59.2926 27.9281 59.1619 27.9281C59.0638 27.9281 58.9984 27.96 58.9984 27.992C58.9658 28.0239 58.9331 28.0878 58.9658 28.1517V29.4291C58.9658 29.5249 58.9658 29.5888 59.0312 29.5888C59.0638 29.6208 59.1292 29.6527 59.1946 29.6527H59.8155C59.8808 29.6527 59.9461 29.6527 59.9788 29.5888C60.0115 29.5569 60.0442 29.493 60.0442 29.4291V28.95H62.822V29.3972C62.822 29.493 62.822 29.5569 62.8873 29.5569C62.92 29.5888 62.9854 29.6208 63.0507 29.6208H63.6716C63.737 29.6208 63.8024 29.6208 63.835 29.5569C63.8677 29.5249 63.9004 29.4611 63.9004 29.3972V28.1197C63.9004 28.0558 63.9004 28.0239 63.8677 27.96C63.835 27.9281 63.7696 27.8961 63.7043 27.8961H63.3448V24.3832C63.2794 24.3193 63.2468 24.2554 63.2141 24.2235ZM60.8612 27.5129L61.0573 25.1815H62.1357V27.992H60.5671C60.6651 27.96 60.7305 27.8961 60.7959 27.8323C60.8285 27.7365 60.8285 27.6406 60.8612 27.5129ZM64.8807 24.1915C64.8154 24.1915 64.7827 24.1915 64.7173 24.2235C64.6847 24.2554 64.652 24.3193 64.652 24.3832V28.8223C64.652 28.8862 64.652 28.95 64.6847 28.982C64.7173 29.0139 64.7827 29.0459 64.8481 29.0459H65.5343C65.6323 29.0459 65.6977 29.0139 65.7304 28.982C65.7631 28.95 65.8285 28.8862 65.8611 28.7903L67.4624 26.2674V28.8223C67.4624 28.9181 67.4624 28.95 67.5278 28.982C67.5604 29.0139 67.6258 29.0139 67.6912 29.0139H68.4428C68.5082 29.0139 68.5735 29.0139 68.6062 28.982C68.6388 28.95 68.6716 28.8862 68.6716 28.8223V24.3832C68.6716 24.3193 68.6716 24.2873 68.6388 24.2235C68.6062 24.1915 68.5408 24.1596 68.4754 24.1596H67.7892C67.6912 24.1596 67.6258 24.1915 67.5931 24.2235C67.5604 24.2554 67.4951 24.3193 67.4624 24.3832L65.8611 26.9061V24.3512C65.8611 24.2554 65.8285 24.2235 65.7957 24.1915C65.7631 24.1596 65.6977 24.1276 65.6323 24.1596H64.8807V24.1915ZM70.0441 24.1915C69.9787 24.1915 69.9133 24.1915 69.8807 24.2235C69.848 24.2554 69.8153 24.3193 69.8153 24.3832V28.8223C69.8153 28.9181 69.848 28.95 69.8807 28.982C69.9133 29.0139 69.9787 29.0139 70.0441 29.0139H70.7957C70.8611 29.0139 70.9264 29.0139 70.9591 28.982C70.9917 28.95 71.0245 28.8862 71.0245 28.8223V27.1616H72.6911V28.8223C72.6911 28.9181 72.7238 28.95 72.7564 28.982C72.7891 29.0139 72.8545 29.0139 72.9198 29.0139H73.6714C73.7368 29.0139 73.8022 29.0139 73.8348 28.982C73.8676 28.95 73.9002 28.8862 73.9002 28.8223V24.4151C73.9002 24.3193 73.8676 24.2554 73.8348 24.2554C73.8022 24.2235 73.7368 24.1915 73.6714 24.2235H72.9198C72.8545 24.2235 72.8218 24.2235 72.7564 24.2554C72.7238 24.2873 72.6911 24.3512 72.6911 24.4151V26.0758H71.0245V24.4151C71.0245 24.3193 71.0245 24.2554 70.9591 24.2554C70.9264 24.2235 70.8611 24.1915 70.7957 24.2235H70.0441V24.1915ZM75.0442 24.2235C75.0115 24.2554 74.9788 24.3193 74.9788 24.3832V28.8223C74.9788 28.8862 74.9788 28.95 75.0442 28.982C75.077 29.0139 75.1417 29.0459 75.2071 29.0459H78.5733C78.6715 29.0459 78.7369 29.0459 78.7369 28.982C78.7696 28.95 78.7696 28.8862 78.7696 28.8223V28.2155C78.7696 28.1517 78.7696 28.0878 78.7369 28.0558C78.7042 28.0239 78.6387 27.992 78.5733 27.992H76.1881V27.0339H78.2141C78.3122 27.0339 78.3769 27.002 78.3769 26.97C78.4097 26.9381 78.4424 26.8742 78.4097 26.8103V26.2354C78.4097 26.1716 78.4097 26.1077 78.3769 26.0758C78.345 26.0438 78.2795 26.0119 78.2141 26.0119H76.1881V25.2135H78.4751C78.5733 25.2135 78.606 25.2135 78.6387 25.1496C78.6715 25.1177 78.6715 25.0538 78.6715 24.9899V24.3832C78.6715 24.3193 78.6715 24.2554 78.6387 24.2235C78.606 24.1915 78.5406 24.1596 78.4751 24.1596H75.2071C75.1097 24.1915 75.0442 24.1915 75.0442 24.2235ZM82.8215 24.1915C82.7561 24.1915 82.7234 24.1915 82.6579 24.2235C82.6259 24.2554 82.5932 24.3193 82.5932 24.3832V26.0758H80.9265V24.4151C80.9265 24.3193 80.9265 24.2554 80.861 24.2554C80.8283 24.2235 80.7629 24.1915 80.6974 24.2235H79.9462C79.8808 24.2235 79.8153 24.2235 79.7826 24.2554C79.7499 24.2873 79.7172 24.3512 79.7172 24.4151V28.8542C79.7172 28.95 79.7499 28.982 79.7826 29.0139C79.8153 29.0458 79.8808 29.0459 79.9462 29.0459H80.6974C80.7629 29.0459 80.8283 29.0458 80.861 29.0139C80.8938 28.982 80.9265 28.9181 80.9265 28.8542V27.1936H82.5932V28.8542C82.5932 28.95 82.6259 28.982 82.6579 29.0139C82.6907 29.0458 82.7561 29.0459 82.8215 29.0459H83.5735C83.6389 29.0459 83.7044 29.0458 83.7363 29.0139C83.7691 28.982 83.8018 28.9181 83.8018 28.8542V24.4151C83.8018 24.3193 83.7691 24.2554 83.7363 24.2554C83.7044 24.2235 83.6389 24.1915 83.5735 24.2235H82.8215V24.1915ZM87.9854 24.1915C87.9199 24.1915 87.8872 24.1915 87.8217 24.2235C87.789 24.2554 87.7563 24.3193 87.7563 24.3832V26.0758H86.0896V24.4151C86.0896 24.3193 86.0896 24.2554 86.0241 24.2554C85.9914 24.2235 85.9259 24.1915 85.8605 24.2235H85.1093C85.0438 24.2235 84.9784 24.2235 84.9457 24.2554C84.9129 24.2873 84.8802 24.3512 84.8802 24.4151V28.8542C84.8802 28.95 84.9129 28.982 84.9457 29.0139C84.9784 29.0458 85.0438 29.0459 85.1093 29.0459H85.8605C85.9259 29.0459 85.9914 29.0458 86.0241 29.0139C86.0568 28.982 86.0896 28.9181 86.0896 28.8542V27.1936H87.7563V28.8542C87.7563 28.95 87.789 28.982 87.8217 29.0139C87.8545 29.0458 87.9199 29.0459 87.9854 29.0459H88.7365C88.802 29.0459 88.8674 29.0458 88.9002 29.0139C88.9329 28.982 88.9656 28.9181 88.9656 28.8542V24.4151C88.9656 24.3193 88.9329 24.2554 88.9002 24.2554C88.8674 24.2235 88.802 24.1915 88.7365 24.2235H87.9854V24.1915ZM94.9133 24.1915C94.8479 24.1915 94.7824 24.1915 94.7497 24.2235C94.717 24.2554 94.6842 24.3193 94.6842 24.3832V28.8223C94.6842 28.9181 94.6842 28.95 94.7497 28.982C94.7824 29.0139 94.8479 29.0139 94.9133 29.0139H95.6645C95.7299 29.0139 95.7954 29.0139 95.8281 28.982C95.8608 28.95 95.8936 28.8862 95.8936 28.8223V24.3832C95.8936 24.2873 95.8936 24.2554 95.8281 24.2235C95.7954 24.1915 95.7299 24.1596 95.6645 24.1915H94.9133ZM91.1879 24.2235C91.1552 24.1915 91.0897 24.1596 91.0243 24.1915H90.2724C90.2069 24.1915 90.1415 24.1915 90.1095 24.2235C90.0767 24.2554 90.044 24.3193 90.044 24.3832V28.8223C90.044 28.8862 90.044 28.95 90.1095 28.982C90.1415 29.0139 90.2069 29.0459 90.2724 29.0459H91.9718C92.6256 29.0459 93.1157 28.8862 93.4422 28.5988C93.7694 28.3114 93.9323 27.8961 93.965 27.3852C93.965 26.8742 93.8022 26.459 93.4422 26.1715C93.083 25.8842 92.6256 25.7564 91.9718 25.7564H91.2526V24.3832C91.2526 24.3193 91.2199 24.2554 91.1879 24.2235ZM91.2526 26.7464H91.9718C92.2663 26.7464 92.4619 26.8103 92.5928 26.9061C92.7237 27.002 92.7892 27.1616 92.7892 27.3532C92.7892 27.5448 92.7237 27.7045 92.5928 27.8003C92.4619 27.8961 92.2336 27.96 91.9718 27.96H91.2526V26.7464ZM100.796 24.1915H100.109C100.011 24.1915 99.9455 24.2235 99.9127 24.2554C99.88 24.2873 99.8146 24.3512 99.7826 24.4151L98.1806 26.9381V24.3832C98.1806 24.2873 98.1486 24.2554 98.1159 24.2235C98.0831 24.1915 98.0177 24.1596 97.9522 24.1915H97.233C97.1676 24.1915 97.1349 24.1915 97.0702 24.2235C97.0374 24.2554 97.0047 24.3193 97.0047 24.3832V28.8223C97.0047 28.8862 97.0047 28.95 97.0374 28.982C97.0702 29.0139 97.1349 29.0459 97.2003 29.0459H97.8868C97.985 29.0459 98.0504 29.0139 98.0831 28.982C98.1159 28.95 98.1806 28.8862 98.2133 28.7903L99.8146 26.2674V28.8223C99.8146 28.9181 99.8146 28.95 99.88 28.982C99.9127 29.0139 99.9782 29.0139 100.044 29.0139H100.796C100.86 29.0139 100.926 29.0139 100.958 28.982C100.991 28.95 101.024 28.8862 101.024 28.8223V24.3832C101.024 24.3193 101.024 24.2873 100.991 24.2235C100.958 24.1915 100.893 24.1915 100.796 24.1915ZM98.5405 23.5527C98.7042 23.6166 98.8998 23.6486 99.1288 23.6486C99.3244 23.6486 99.5208 23.6166 99.7171 23.5527C99.88 23.4889 100.044 23.3931 100.142 23.2334C100.24 23.1057 100.305 22.946 100.37 22.7224V22.6266C100.37 22.5947 100.337 22.5627 100.305 22.5627H99.9127C99.88 22.5627 99.8473 22.5627 99.8473 22.5947C99.8473 22.6266 99.8146 22.6586 99.8146 22.6586C99.7499 22.7863 99.6517 22.8821 99.5535 22.946C99.4226 23.0099 99.2917 23.0418 99.1616 23.0418C99.0307 23.0418 98.8998 23.0099 98.7689 22.946C98.6387 22.8821 98.5405 22.7863 98.5078 22.6586C98.5078 22.6266 98.4751 22.5947 98.4751 22.5947C98.4751 22.5627 98.4424 22.5627 98.3769 22.5627H98.0177C97.985 22.5627 97.9522 22.5947 97.9522 22.6266V22.7224C97.985 22.9141 98.0504 23.1057 98.1806 23.2334C98.2133 23.3931 98.3442 23.4889 98.5405 23.5527ZM104.423 24.1915C104.357 24.1915 104.292 24.1915 104.259 24.2235C104.226 24.2554 104.194 24.3193 104.194 24.3832V28.8223C104.194 28.9181 104.194 28.95 104.259 28.982C104.292 29.0139 104.357 29.0139 104.423 29.0139H105.174C105.239 29.0139 105.272 29.0139 105.338 28.982C105.37 28.95 105.403 28.8862 105.403 28.8223V27.5129L105.86 27.0339C105.959 27.1936 106.09 27.3852 106.22 27.5768C106.351 27.7684 106.449 27.96 106.58 28.1517C106.678 28.3114 106.775 28.503 106.841 28.5988L106.939 28.7584C106.972 28.8542 107.037 28.8862 107.102 28.9181C107.168 28.95 107.233 28.982 107.331 28.982H108.246C108.312 28.982 108.377 28.95 108.377 28.8862C108.377 28.8223 108.377 28.7903 108.345 28.7265L106.711 26.1077L108.409 24.3193C108.442 24.2873 108.475 24.2235 108.442 24.1915C108.442 24.1596 108.377 24.1276 108.312 24.1276H107.298C107.201 24.1276 107.135 24.1276 107.102 24.1596C107.07 24.1596 107.004 24.2235 106.939 24.3193L105.37 26.0119V24.3512C105.37 24.2554 105.37 24.2235 105.305 24.1915C105.272 24.1596 105.207 24.1276 105.142 24.1596H104.423V24.1915ZM111.416 24.1915H110.697C110.599 24.1915 110.533 24.1915 110.501 24.2554C110.436 24.2873 110.403 24.3512 110.37 24.4151L108.704 28.8542V28.982C108.704 29.0139 108.769 29.0459 108.835 29.0459H109.619C109.717 29.0459 109.782 29.0458 109.815 29.0139C109.848 28.982 109.88 28.9181 109.913 28.8542L110.141 28.2475H111.972L112.167 28.8542C112.2 28.95 112.233 28.982 112.266 29.0139C112.298 29.0458 112.364 29.0459 112.429 29.0459H113.213C113.311 29.0459 113.344 29.0139 113.344 28.982V28.8542L111.677 24.4151C111.645 24.3193 111.579 24.2873 111.547 24.2554C111.579 24.1915 111.482 24.1915 111.416 24.1915ZM110.501 27.1936L111.056 25.5648L111.612 27.1936H110.501ZM114.292 24.1915C114.227 24.1915 114.161 24.1915 114.129 24.2235C114.096 24.2554 114.063 24.3193 114.063 24.3832V28.8223C114.063 28.9181 114.096 28.95 114.129 28.982C114.161 29.0139 114.227 29.0139 114.292 29.0139H115.043C115.109 29.0139 115.174 29.0139 115.207 28.982C115.24 28.95 115.272 28.8862 115.272 28.8223V25.2135H116.938V28.8223C116.938 28.9181 116.971 28.95 117.004 28.982C117.037 29.0139 117.102 29.0139 117.168 29.0139H117.919C117.985 29.0139 118.05 29.0139 118.082 28.982C118.115 28.95 118.148 28.8862 118.148 28.8223V24.4151C118.148 24.3193 118.115 24.2554 118.082 24.2554C118.05 24.2235 117.985 24.1915 117.919 24.2235H114.292V24.1915ZM123.05 24.1915H122.363C122.266 24.1915 122.2 24.2235 122.168 24.2554C122.135 24.2873 122.07 24.3512 122.037 24.4151L120.436 26.9381V24.3832C120.436 24.2873 120.403 24.2554 120.37 24.2235C120.337 24.1915 120.272 24.1596 120.206 24.1915H119.488C119.423 24.1915 119.39 24.1915 119.324 24.2235C119.292 24.2554 119.259 24.3193 119.259 24.3832V28.8223C119.259 28.8862 119.259 28.95 119.292 28.982C119.324 29.0139 119.39 29.0459 119.455 29.0459H120.142C120.239 29.0459 120.305 29.0139 120.337 28.982C120.37 28.95 120.436 28.8862 120.468 28.7903L122.07 26.2674V28.8223C122.07 28.9181 122.07 28.95 122.135 28.982C122.168 29.0139 122.233 29.0139 122.298 29.0139H123.05C123.115 29.0139 123.181 29.0139 123.213 28.982C123.246 28.95 123.279 28.8862 123.279 28.8223V24.3832C123.279 24.3193 123.279 24.2873 123.246 24.2235C123.213 24.1915 123.148 24.1915 123.05 24.1915ZM127.985 24.4151C127.985 24.3512 127.985 24.2873 127.952 24.2554C127.919 24.2235 127.854 24.1915 127.788 24.1915H124.226C124.128 24.1915 124.096 24.1915 124.063 24.2554C124.03 24.2873 124.03 24.3512 124.03 24.4151V25.0218C124.03 25.0857 124.03 25.1496 124.063 25.1815C124.096 25.2135 124.161 25.2454 124.226 25.2454H125.403V28.8542C125.403 28.95 125.403 28.982 125.468 29.0139C125.5 29.0458 125.566 29.0459 125.631 29.0459H126.383C126.449 29.0459 126.514 29.0458 126.547 29.0139C126.58 28.982 126.612 28.9181 126.612 28.8542V25.2135H127.755C127.854 25.2135 127.886 25.2135 127.919 25.1496C127.952 25.1177 127.952 25.0538 127.952 24.9899L127.985 24.4151ZM131.023 24.1915H130.305C130.207 24.1915 130.141 24.1915 130.109 24.2554C130.043 24.2873 130.01 24.3512 129.978 24.4151L128.311 28.8542V28.982C128.311 29.0139 128.376 29.0459 128.442 29.0459H129.227C129.324 29.0459 129.389 29.0458 129.422 29.0139C129.455 28.982 129.488 28.9181 129.52 28.8542L129.749 28.2475H131.579L131.775 28.8542C131.808 28.95 131.841 28.982 131.874 29.0139C131.906 29.0458 131.971 29.0459 132.036 29.0459H132.821C132.919 29.0459 132.952 29.0139 132.952 28.982V28.8542L131.285 24.4151C131.253 24.3193 131.187 24.2873 131.154 24.2554C131.154 24.1915 131.089 24.1915 131.023 24.1915ZM130.076 27.1936L130.632 25.5648L131.187 27.1936H130.076Z" fill="#3E3935"/>
<path d="M20.3392 8.95784C18.2803 8.95784 16.483 9.5327 14.9144 10.6824C15.3066 10.2992 15.7314 9.94787 16.1889 9.59659C18.1823 8.19137 20.3718 7.71232 22.7901 8.06363C25.2084 8.44687 27.1364 9.59659 28.5743 11.5128C30.0122 13.4609 30.535 15.6006 30.1429 17.9959C30.0776 18.4749 29.9468 18.954 29.8161 19.3692C30.5678 18.3152 31.058 17.0697 31.2867 15.6964C31.4501 14.7064 31.4501 13.7803 31.3194 12.8541C32.0056 14.3551 32.2017 15.952 31.9076 17.6766C31.5154 20.0399 30.339 21.9241 28.3455 23.3293C26.4828 24.6387 24.3914 25.1816 22.1038 24.8942C22.0385 24.5429 22.0057 24.1916 22.0057 23.8084C21.9404 22.4031 22.2019 21.0937 22.7574 19.8802L21.8097 19.6885C20.3392 21.4451 19.6528 23.457 19.7182 25.7565C19.7182 26.0439 19.7509 26.2994 19.7836 26.5549C18.6071 26.1397 17.5287 25.4691 16.5483 24.511C14.8164 22.8183 13.9667 20.7743 13.9667 18.3791C13.9667 15.9839 14.849 13.94 16.5483 12.2473C18.2803 10.5547 20.3718 9.72436 22.8227 9.72436C23.3129 9.72436 23.8031 9.75627 24.2606 9.82016C23.0842 9.24531 21.777 8.95784 20.3392 8.95784ZM22.2345 25.533C22.8227 25.7565 23.4437 25.9162 24.0972 26.0119C26.6135 26.3952 28.8684 25.8842 30.9272 24.4152C32.9533 22.9461 34.1951 20.9979 34.5873 18.5708C34.9794 16.1436 34.4566 13.908 32.986 11.896C32.1037 10.7144 31.0252 9.78818 29.7508 9.18142C29.7181 9.14944 29.6854 9.08562 29.6527 9.05364C28.1821 7.04165 26.1887 5.82807 23.6724 5.44483C21.1561 5.06159 18.9012 5.57257 16.8425 7.04165C15.0124 8.35108 13.836 10.0437 13.3131 12.1515C11.8752 13.7803 11.1562 15.6964 11.1562 17.932C11.1562 20.4231 12.0386 22.5309 13.836 24.2874C15.5026 25.9162 17.4961 26.7785 19.8162 26.9062C19.9796 27.8962 20.2738 28.8224 20.764 29.6528H24.4894C23.3456 28.4711 22.594 27.0978 22.2345 25.533Z" fill="#2F9A41"/>
</svg>
