<svg width="24" height="25" fill="none" xmlns="http://www.w3.org/2000/svg"><path d="M9.34 3.958c-2.06 0-3.857.575-5.426 1.724a14.06 14.06 0 011.275-1.085C7.182 3.19 9.372 2.712 11.79 3.064c2.418.383 4.346 1.533 5.784 3.449 1.438 1.948 1.961 4.088 1.569 6.483a8.483 8.483 0 01-.327 1.373c.752-1.054 1.242-2.3 1.47-3.673.164-.99.164-1.916.033-2.842.687 1.501.883 3.098.589 4.823-.393 2.363-1.569 4.247-3.563 5.652-1.862 1.31-3.954 1.853-6.241 1.565a5.845 5.845 0 01-.098-1.086 8.376 8.376 0 01.751-3.928l-.947-.192c-1.47 1.757-2.157 3.769-2.092 6.068 0 .288.033.543.066.799-1.177-.415-2.255-1.086-3.236-2.044-1.732-1.693-2.581-3.737-2.581-6.132 0-2.395.882-4.439 2.581-6.132 1.732-1.692 3.824-2.523 6.275-2.523.49 0 .98.032 1.438.096-1.177-.575-2.484-.862-3.922-.862zm1.895 16.575a8.83 8.83 0 001.862.479c2.517.383 4.771-.128 6.83-1.597 2.026-1.469 3.268-3.417 3.66-5.844.392-2.427-.13-4.663-1.601-6.675-.882-1.182-1.96-2.108-3.235-2.715-.033-.032-.066-.095-.098-.127-1.47-2.012-3.464-3.226-5.98-3.61C10.155.063 7.9.574 5.842 2.043c-1.83 1.31-3.007 3.002-3.53 5.11C.875 8.78.156 10.696.156 12.931c0 2.491.883 4.599 2.68 6.355 1.667 1.63 3.66 2.492 5.98 2.62.164.99.458 1.915.948 2.746h3.725c-1.143-1.182-1.895-2.555-2.255-4.12z" fill="#2F9A41"/></svg>