<svg width="149" height="38" fill="none" xmlns="http://www.w3.org/2000/svg"><path d="M134.357 24.192c-.066 0-.098 0-.164.032a.244.244 0 00-.065.16l-.261 3.225c0 .16-.033.255-.098.351-.066.096-.164.16-.327.16-.065 0-.131 0-.131.064 0 .031-.033.095-.033.16v.542c0 .096 0 .128.033.16s.098.032.164.032c.392 0 .686-.032.915-.096.196-.096.359-.224.457-.447.098-.192.131-.511.164-.894l.163-2.396h1.209v3.61c0 .095 0 .127.065.159.033.032.098.032.164.032h.751c.066 0 .131 0 .164-.032a.244.244 0 00.065-.16v-4.439c0-.096 0-.16-.065-.16-.033-.031-.098-.063-.164-.031h-3.006v-.032zM46.613 10.906c-.065-.096-.163-.128-.36-.128h-6.437c-.131 0-.262.032-.327.096-.098.064-.13.16-.13.351v8.847c0 .127 0 .255.097.32.066.095.164.127.36.127h3.856c1.307 0 2.288-.256 2.974-.767.686-.51 1.013-1.277 1.013-2.363 0-1.022-.327-1.788-.948-2.3-.654-.479-1.634-.734-2.974-.734h-1.96v-1.597h4.542a.597.597 0 00.36-.096.531.531 0 00.097-.319v-1.118c-.065-.16-.065-.255-.163-.32zm-1.634 5.653c.261.16.392.447.36.798 0 .383-.131.67-.425.83-.262.16-.687.256-1.275.256h-1.928v-2.14h1.96c.622 0 1.047.096 1.308.256zm7.255-5.653c-.098.064-.164.191-.229.351l-3.366 8.847c-.033.095-.065.191-.033.255.033.096.131.128.295.16h1.568c.163 0 .294 0 .36-.096.098-.064.163-.192.228-.351l.425-1.182h3.693l.425 1.182c.065.16.13.287.196.351a.597.597 0 00.36.096h1.568c.163 0 .261-.064.261-.16a.345.345 0 000-.255l-3.333-8.847a.949.949 0 00-.229-.351c-.098-.096-.228-.128-.392-.128h-1.438a.499.499 0 00-.36.128zm2.222 5.908h-2.255l1.144-3.257 1.111 3.257zm12.908-5.94a.561.561 0 00-.326-.096h-1.471c-.13 0-.261.032-.327.096-.098.064-.13.16-.13.351v3.354h-3.367v-3.386c0-.16-.032-.287-.13-.351-.066-.064-.164-.096-.327-.096h-1.47c-.131 0-.262.032-.327.096-.098.064-.131.16-.131.351v8.847c0 .16.033.287.13.351.066.064.164.096.328.096h1.47c.163 0 .261 0 .327-.096.098-.064.13-.16.13-.351v-3.29h3.366v3.322c0 .16.033.287.131.351a.561.561 0 00.327.096h1.47c.131 0 .262 0 .327-.096.066-.064.098-.16.098-.351v-8.879c.033-.16 0-.255-.098-.319zm10.654-.096h-2.059c-.164 0-.294 0-.392.064-.098.032-.229.16-.36.287l-3.137 3.386v-3.322c0-.16-.032-.287-.098-.351-.065-.064-.163-.096-.294-.096h-1.503c-.13 0-.262.032-.327.096-.098.064-.13.16-.13.351v8.847c0 .16.032.287.13.351.065.064.163.096.327.096h1.503c.13 0 .229 0 .294-.096.066-.064.098-.16.098-.351v-2.587l.948-.958c.196.351.425.702.686 1.118.262.415.49.798.687 1.15.228.35.424.67.555.893.131.256.196.352.228.384.099.16.197.255.328.351.098.096.26.128.424.128h1.83c.163 0 .229-.064.262-.16.032-.096 0-.223-.033-.32l-3.268-5.237 3.432-3.609a.357.357 0 00.098-.255c-.033-.096-.098-.16-.23-.16zm-36.83 13.286a2.54 2.54 0 00-.686.096 2.08 2.08 0 00-.654.319c-.196.128-.36.32-.49.51-.13.224-.163.48-.196.767v1.757c0 .287.066.543.196.766.13.224.262.384.49.511.197.128.425.224.654.288a2.53 2.53 0 001.372 0c.23-.064.425-.16.654-.288a1.83 1.83 0 00.49-.51c.131-.192.164-.448.196-.767v-1.757a1.49 1.49 0 00-.196-.766 1.845 1.845 0 00-.49-.511 2.471 2.471 0 00-.654-.32 2.54 2.54 0 00-.686-.095zm-.85 3.321v-1.533c0-.223.099-.415.23-.543.163-.128.359-.191.62-.191.262 0 .458.064.621.191.164.128.229.32.229.543v1.533a.708.708 0 01-.229.543c-.163.128-.36.192-.62.192-.262 0-.458-.064-.622-.192a.762.762 0 01-.228-.543zm7.32-3.194h-3.235c-.065 0-.13 0-.163.033a.24.24 0 00-.065.16v4.438c0 .064 0 .128.065.16a.253.253 0 00.163.064h1.929c.653 0 1.143-.128 1.47-.383.327-.256.49-.671.49-1.182 0-.511-.163-.894-.49-1.15-.327-.255-.817-.351-1.47-.351h-.98v-.799h2.254c.098 0 .13-.031.163-.063s.033-.096.033-.16v-.575c0-.064 0-.096-.033-.16 0-.031-.065-.031-.13-.031zm-2.287 2.747h.98c.295 0 .523.032.621.128.131.096.197.223.197.415 0 .192-.066.351-.197.415-.13.096-.359.128-.653.128h-.948v-1.086zm5.261-2.746h-1.47c-.098 0-.163 0-.163.063-.033.032-.033.096-.033.16v.639c0 .064 0 .128.033.16a.253.253 0 00.163.063h.523v3.577c0 .064 0 .128.032.16a.253.253 0 00.164.064h1.7c.653 0 1.143-.16 1.47-.447.327-.288.49-.703.49-1.214 0-.51-.163-.926-.523-1.214-.36-.287-.817-.415-1.47-.415h-.72v-1.373c0-.096 0-.128-.065-.16 0-.063-.032-.095-.13-.063zm.948 2.554c.294 0 .523.064.654.16.13.096.196.256.196.447 0 .192-.065.351-.196.447-.13.096-.36.16-.654.16h-.719v-1.245h.72v.031zm6.438-2.554h-3.235c-.098 0-.164 0-.164.063a.241.241 0 00-.065.16v4.44c0 .063 0 .127.065.159a.253.253 0 00.164.064h3.366c.098 0 .163 0 .163-.064.033-.032.033-.096.033-.16v-.607c0-.063 0-.127-.033-.16a.252.252 0 00-.163-.063H55.73v-.958h2.027c.098 0 .163-.032.163-.064.033-.032.065-.096.033-.16v-.575c0-.064 0-.127-.033-.16a.253.253 0 00-.163-.063H55.73v-.799h2.287c.098 0 .13 0 .163-.064.033-.031.033-.095.033-.16v-.606c0-.064 0-.128-.032-.16-.033-.063-.099-.063-.164-.063zm5.196.032c-.033-.032-.098-.064-.163-.032h-2.909c-.065 0-.13 0-.163.032a.24.24 0 00-.066.16l-.228 3.065c0 .096-.033.16-.066.255-.032.096-.098.128-.163.16a.666.666 0 01-.294.064c-.098 0-.164.032-.164.064-.032.032-.065.096-.032.16v1.277c0 .096 0 .16.065.16a.252.252 0 00.164.064h.62c.066 0 .131 0 .164-.064a.24.24 0 00.065-.16v-.479h2.778v.447c0 .096 0 .16.065.16a.253.253 0 00.164.064h.62c.066 0 .131 0 .164-.064a.241.241 0 00.065-.16V28.12c0-.064 0-.096-.032-.16a.253.253 0 00-.164-.064h-.36v-3.513c-.065-.064-.097-.128-.13-.16zm-2.353 3.289l.196-2.332h1.079v2.811h-1.569c.098-.032.163-.096.229-.16.032-.096.032-.191.065-.32zm4.02-3.322c-.066 0-.098 0-.164.033a.241.241 0 00-.065.16v4.438c0 .064 0 .128.033.16a.253.253 0 00.163.064h.686c.098 0 .164-.032.196-.064.033-.032.099-.096.131-.192l1.601-2.523v2.555c0 .096 0 .128.066.16.032.032.098.032.163.032h.752c.065 0 .13 0 .163-.032a.242.242 0 00.066-.16v-4.439c0-.064 0-.096-.033-.16a.252.252 0 00-.164-.063h-.686c-.098 0-.163.032-.196.064a.699.699 0 00-.13.16l-1.602 2.522v-2.555c0-.096-.032-.127-.065-.16-.033-.031-.098-.063-.164-.031h-.751v.032zm5.163 0c-.065 0-.13 0-.163.033a.24.24 0 00-.066.16v4.438c0 .096.033.128.066.16.032.032.098.032.163.032h.752c.065 0 .13 0 .163-.032a.242.242 0 00.066-.16v-1.66h1.666v1.66c0 .096.033.128.065.16.033.032.099.032.164.032h.751c.066 0 .131 0 .164-.032a.24.24 0 00.065-.16v-4.407c0-.096-.032-.16-.065-.16-.033-.031-.098-.063-.164-.031h-.751c-.066 0-.098 0-.164.031a.241.241 0 00-.065.16v1.66h-1.666v-1.66c0-.096 0-.16-.066-.16-.033-.031-.098-.063-.163-.031h-.752v-.032zm5 .033a.24.24 0 00-.065.16v4.438c0 .064 0 .128.065.16a.252.252 0 00.163.064h3.366c.099 0 .164 0 .164-.064.033-.032.033-.096.033-.16v-.607c0-.063 0-.127-.033-.16a.253.253 0 00-.164-.063h-2.385v-.958h2.026c.098 0 .163-.032.163-.064.033-.032.065-.096.033-.16v-.575c0-.063 0-.127-.033-.16a.249.249 0 00-.163-.063h-2.026v-.799h2.287c.098 0 .131 0 .164-.063.032-.032.032-.096.032-.16v-.607c0-.064 0-.128-.032-.16a.253.253 0 00-.164-.063h-3.268c-.097.032-.163.032-.163.064zm7.778-.032c-.066 0-.099 0-.164.032a.244.244 0 00-.065.16v1.692h-1.666v-1.66c0-.097 0-.16-.066-.16-.033-.032-.098-.064-.164-.032h-.75c-.066 0-.132 0-.164.031a.24.24 0 00-.066.16v4.44c0 .095.033.127.066.159.032.032.098.032.163.032h.751c.066 0 .131 0 .164-.032a.24.24 0 00.066-.16v-1.66h1.666v1.66c0 .096.033.128.065.16.033.032.098.032.163.032h.752c.066 0 .131 0 .163-.032a.24.24 0 00.066-.16v-4.439c0-.096-.033-.16-.066-.16-.032-.031-.097-.063-.163-.031h-.751v-.032zm5.163 0c-.065 0-.098 0-.163.032a.24.24 0 00-.066.16v1.692H86.09v-1.66c0-.097 0-.16-.066-.16-.033-.032-.098-.064-.163-.032h-.752c-.065 0-.13 0-.163.031a.24.24 0 00-.066.16v4.44c0 .095.033.127.066.159.032.032.098.032.163.032h.752c.065 0 .13 0 .163-.032a.241.241 0 00.066-.16v-1.66h1.666v1.66c0 .096.033.128.066.16.032.032.098.032.163.032h.752c.065 0 .13 0 .163-.032a.24.24 0 00.066-.16v-4.439c0-.096-.033-.16-.066-.16-.033-.031-.098-.063-.163-.031h-.752v-.032zm6.928 0c-.065 0-.13 0-.163.032a.241.241 0 00-.066.16v4.438c0 .096 0 .128.066.16.032.032.098.032.163.032h.752c.065 0 .13 0 .163-.032a.241.241 0 00.066-.16v-4.439c0-.096 0-.128-.066-.16-.033-.031-.098-.063-.163-.031h-.752zm-3.725.032c-.033-.032-.098-.064-.164-.032h-.752c-.065 0-.13 0-.163.032a.24.24 0 00-.065.16v4.438c0 .064 0 .128.066.16a.25.25 0 00.162.064h1.7c.654 0 1.144-.16 1.47-.447.327-.288.49-.703.523-1.214 0-.51-.163-.926-.523-1.213-.359-.288-.816-.416-1.47-.416h-.72v-1.373a.244.244 0 00-.064-.16zm.065 2.522h.719c.294 0 .49.064.62.16.132.096.197.256.197.447 0 .192-.065.351-.196.447-.131.096-.36.16-.621.16h-.72v-1.214zm9.543-2.554h-.687a.285.285 0 00-.196.063.68.68 0 00-.13.16l-1.602 2.523v-2.555c0-.096-.032-.128-.065-.16-.033-.031-.098-.063-.164-.031h-.719c-.065 0-.098 0-.163.032a.24.24 0 00-.065.16v4.438c0 .064 0 .128.032.16a.252.252 0 00.163.064h.687c.098 0 .163-.032.196-.064a.49.49 0 00.13-.192l1.602-2.523v2.555c0 .096 0 .128.065.16.033.032.098.032.164.032h.752c.064 0 .13 0 .162-.032a.24.24 0 00.066-.16v-4.439c0-.064 0-.096-.033-.16-.033-.031-.098-.031-.195-.031zm-2.256-.64c.164.065.36.097.589.097.195 0 .392-.032.588-.096.163-.064.327-.16.425-.32.098-.127.163-.287.228-.51v-.096c0-.032-.033-.064-.065-.064h-.392c-.033 0-.066 0-.066.032s-.032.064-.032.064a.753.753 0 01-.261.287.888.888 0 01-.392.096.888.888 0 01-.393-.096c-.13-.064-.229-.16-.261-.287 0-.032-.033-.064-.033-.064 0-.032-.033-.032-.098-.032h-.36c-.032 0-.065.032-.065.064v.095c.033.192.098.384.229.511.032.16.163.256.36.32zm5.883.64c-.066 0-.131 0-.164.032a.24.24 0 00-.065.16v4.438c0 .096 0 .128.065.16.033.032.098.032.164.032h.751c.065 0 .098 0 .164-.032a.244.244 0 00.065-.16v-1.31l.457-.478c.099.16.23.351.36.543.131.191.229.383.36.575.098.16.195.351.261.447l.098.16c.033.095.098.127.163.16.066.031.131.063.229.063h.915c.066 0 .131-.032.131-.096s0-.096-.032-.16l-1.634-2.618 1.698-1.789c.033-.032.066-.095.033-.127 0-.032-.065-.064-.13-.064h-1.014c-.097 0-.163 0-.196.032-.032 0-.098.064-.163.16l-1.569 1.692v-1.66c0-.097 0-.128-.065-.16-.033-.032-.098-.064-.163-.032h-.719v.032zm6.993 0h-.719c-.098 0-.164 0-.196.063-.065.032-.098.096-.131.16l-1.666 4.44v.127c0 .032.065.064.131.064h.784c.098 0 .163 0 .196-.032s.065-.096.098-.16l.228-.607h1.831l.195.607a.34.34 0 00.099.16c.032.032.098.032.163.032h.784c.098 0 .131-.032.131-.064v-.128l-1.667-4.439c-.032-.096-.098-.128-.13-.16.032-.063-.065-.063-.131-.063zm-.915 3.002l.555-1.63.556 1.63h-1.111zm3.791-3.002c-.065 0-.131 0-.163.032a.24.24 0 00-.066.16v4.438c0 .096.033.128.066.16.032.032.098.032.163.032h.751c.066 0 .131 0 .164-.032a.24.24 0 00.065-.16v-3.608h1.666v3.608c0 .096.033.128.066.16s.098.032.164.032h.751c.066 0 .131 0 .163-.032a.24.24 0 00.066-.16v-4.407c0-.096-.033-.16-.066-.16-.032-.031-.097-.063-.163-.031h-3.627v-.032zm8.758 0h-.687c-.097 0-.163.032-.195.063a.699.699 0 00-.131.16l-1.601 2.523v-2.555c0-.096-.033-.128-.066-.16-.033-.031-.098-.063-.164-.031h-.718c-.065 0-.098 0-.164.032a.244.244 0 00-.065.16v4.438c0 .064 0 .128.033.16a.251.251 0 00.163.064h.687c.097 0 .163-.032.195-.064.033-.032.099-.096.131-.192l1.602-2.523v2.555c0 .096 0 .128.065.16.033.032.098.032.163.032h.752c.065 0 .131 0 .163-.032a.24.24 0 00.066-.16v-4.439c0-.064 0-.096-.033-.16-.033-.031-.098-.031-.196-.031zm4.935.223c0-.064 0-.128-.033-.16a.254.254 0 00-.164-.063h-3.562c-.098 0-.13 0-.163.063-.033.032-.033.096-.033.16v.607c0 .064 0 .128.033.16a.253.253 0 00.163.063h1.177v3.61c0 .095 0 .127.065.159.032.032.098.032.163.032h.752c.066 0 .131 0 .164-.032a.24.24 0 00.065-.16v-3.64h1.143c.099 0 .131 0 .164-.064.033-.032.033-.096.033-.16l.033-.575zm3.038-.223h-.718c-.098 0-.164 0-.196.063-.066.032-.099.096-.131.16l-1.667 4.44v.127c0 .032.065.064.131.064h.785c.097 0 .162 0 .195-.032a.661.661 0 00.098-.16l.229-.607h1.83l.196.607a.34.34 0 00.099.16c.032.032.097.032.162.032h.785c.098 0 .131-.032.131-.064v-.128l-1.667-4.439c-.032-.096-.098-.128-.131-.16 0-.063-.065-.063-.131-.063zm-.947 3.002l.556-1.63.555 1.63h-1.111z" fill="#3E3935"/><path d="M20.34 8.958c-2.06 0-3.857.575-5.426 1.724a14.06 14.06 0 011.275-1.085c1.993-1.406 4.183-1.885 6.601-1.533 2.418.383 4.346 1.533 5.784 3.449 1.438 1.948 1.961 4.088 1.569 6.483a8.483 8.483 0 01-.327 1.373c.752-1.054 1.242-2.3 1.47-3.673.164-.99.164-1.916.033-2.842.687 1.501.883 3.098.589 4.823-.393 2.363-1.569 4.247-3.563 5.652-1.862 1.31-3.954 1.853-6.241 1.565a5.845 5.845 0 01-.098-1.086 8.376 8.376 0 01.751-3.928l-.947-.191c-1.47 1.756-2.157 3.768-2.092 6.067 0 .288.033.543.066.799-1.177-.415-2.255-1.086-3.236-2.044-1.732-1.693-2.581-3.737-2.581-6.132 0-2.395.882-4.439 2.581-6.132 1.732-1.692 3.824-2.523 6.275-2.523.49 0 .98.032 1.438.096-1.177-.575-2.484-.862-3.922-.862zm1.895 16.575a8.83 8.83 0 001.862.479c2.516.383 4.771-.128 6.83-1.597 2.026-1.469 3.268-3.417 3.66-5.844.392-2.427-.13-4.663-1.601-6.675-.882-1.182-1.96-2.108-3.235-2.715-.033-.032-.066-.095-.098-.127-1.47-2.012-3.464-3.226-5.98-3.61-2.517-.382-4.772.129-6.83 1.598-1.83 1.31-3.007 3.002-3.53 5.11-1.438 1.628-2.157 3.544-2.157 5.78 0 2.491.883 4.599 2.68 6.355 1.667 1.63 3.66 2.492 5.98 2.62.164.99.458 1.915.948 2.746h3.725c-1.143-1.182-1.895-2.555-2.255-4.12z" fill="#2F9A41"/></svg>