<svg width="605" height="152" fill="none" xmlns="http://www.w3.org/2000/svg"><path d="M72.963 27.725h94.955v95.425H72.963V27.725z" fill="#FFED00"/><g fill="#000"><path d="M282.928 85.698l-2.45 15.2h14.762l2.45-15.2h10.86l-6.655 40.888h-10.769l2.813-17.541h-14.762l-2.813 17.541h-10.89l6.776-40.888h10.799-.121zm43.016 0H314.6l-6.806 40.888h11.132l3.025-17.662 11.495 17.784h14.429l-15.125-21.554 20.267-19.334h-13.612L323.1 102.66l2.844-16.963zm-77.138 25.566l-2.359-13.072-6.806 13.072h9.165zm1.634 8.117h-15.367l-4.084 7.083h-11.858l23.202-40.888h12.1l9.377 40.888h-11.827l-1.543-7.083zm-29.191-5.198a13.743 13.743 0 01-3.268 7.417c-4.325 4.469-10.889 4.712-15.124 4.834h-16.305l7.048-40.736h27.77l-1.301 7.995H203.22l-1.301 8.117h4.809c4.101-.288 8.17.885 11.496 3.314a9.705 9.705 0 012.716 4.156c.53 1.6.636 3.31.309 4.964v-.061zm-17.576-4.743h-3.025l-1.512 8.725h2.813c6.322 0 7.623-1.763 7.986-4.134.363-2.371 0-4.591-6.322-4.591h.06zm281.265-61.62h11.253a5.448 5.448 0 00-1.961-3.188 5.389 5.389 0 00-3.545-1.16 5.272 5.272 0 00-3.721 1.042 5.326 5.326 0 00-2.026 3.305zm20.237 4.65v1.065h-20.389a5.468 5.468 0 00.264 2.437 5.446 5.446 0 005.786 3.643 4.64 4.64 0 002.681-.586 4.671 4.671 0 001.887-1.998h9.378c-1.513 6.596-7.623 9.545-13.825 9.545-9.075 0-15.82-5.168-15.82-14.835a14.113 14.113 0 014.198-10.88 13.997 13.997 0 015.037-3.169 13.943 13.943 0 015.89-.786c9.498 0 14.883 6.08 14.883 15.565h.03zm-268.923-7.417a6.026 6.026 0 00-4.53 1.722 6.081 6.081 0 00-1.822 4.51 6.11 6.11 0 001.77 4.453 6.042 6.042 0 004.431 1.78 5.81 5.81 0 004.504-1.707 5.884 5.884 0 001.697-4.526 6.098 6.098 0 00-1.77-4.453 6.038 6.038 0 00-4.431-1.779h.151zm15.428-7.66v27.815H242v-3.04a9.422 9.422 0 01-3.583 3.072 9.366 9.366 0 01-4.615.941 14.014 14.014 0 01-5.436-1.245 14.073 14.073 0 01-4.527-3.27 14.195 14.195 0 01-3.74-10.32 14.152 14.152 0 013.676-10.307 14.047 14.047 0 014.495-3.285 13.982 13.982 0 015.411-1.274 10.785 10.785 0 014.554.892A10.834 10.834 0 01242 40.098v-2.706h9.68zm141.721 7.66a6.033 6.033 0 00-4.431 1.779 6.08 6.08 0 00-1.34 2.044 6.074 6.074 0 00-.43 2.41 6.074 6.074 0 00.43 2.409 6.08 6.08 0 003.372 3.39 6.031 6.031 0 002.399.432 5.812 5.812 0 004.504-1.706 5.87 5.87 0 001.697-4.526 6.095 6.095 0 00-1.769-4.453 6.03 6.03 0 00-4.432-1.779zm15.488-7.66v27.815H399.3v-3.04a9.427 9.427 0 01-3.582 3.072 9.366 9.366 0 01-4.616.941 14.018 14.018 0 01-5.436-1.245 14.055 14.055 0 01-4.528-3.27 14.129 14.129 0 01-2.907-4.78 14.214 14.214 0 01-.832-5.54 14.165 14.165 0 01.814-5.524 14.077 14.077 0 012.886-4.774 14.017 14.017 0 019.912-4.537 10.793 10.793 0 018.44 3.648v-2.767h9.438zM188.064 65.207V24.32h16.426c11.011 0 14.187 7.904 14.187 13.437a13.118 13.118 0 01-4.032 10.014 13.005 13.005 0 01-4.696 2.876 12.95 12.95 0 01-5.459.669h-6.05v13.892h-10.376zm10.437-32.041v9.393h3.509c4.809 0 5.263-3.04 5.263-4.59 0-1.55-.696-4.59-5.263-4.59h-3.025l-.363-.213h-.121zm59.32 4.256v27.816h9.377l9.62-15.2v15.2h9.74V37.392h-9.377l-9.62 14.957V37.392l-9.74.03zm15.125-3.527a11.06 11.06 0 006.536-1.514 11.14 11.14 0 004.475-5.022l-6.323-2.37a4.405 4.405 0 01-1.66 2.546 4.371 4.371 0 01-2.907.858 4.31 4.31 0 01-2.919-.842 4.346 4.346 0 01-1.649-2.563l-6.322 2.371a11.223 11.223 0 004.447 4.933 11.145 11.145 0 006.443 1.543l-.121.06zm33.638 43.412V65.663c-5.748 0-15.367-2.37-15.367-14.379 0-12.008 9.498-14.257 15.367-14.257v-12.16h9.74v12.16c5.869 0 15.125 2.37 15.125 14.257s-9.498 14.38-15.125 14.38v11.794l-9.74-.151zm9.075-33.44V59.31c3.297 0 6.564-2.371 6.564-7.783 0-5.41-3.297-7.782-6.564-7.66zm-8.44 15.2v-15.2c-3.297 0-6.564 2.37-6.564 7.782 0 5.411 3.297 7.66 6.564 7.54v-.122zm43.015 18.361V65.664c-5.747 0-15.367-2.37-15.367-14.379 0-12.008 9.499-14.257 15.367-14.257v-12.16h9.741v12.16c5.868 0 15.367 2.37 15.367 14.257s-9.499 14.38-15.367 14.38v11.794h-9.741v-.03zm9.075-33.44v15.443c3.298 0 6.565-2.37 6.565-7.782 0-5.411-3.298-7.782-6.565-7.66zm-8.56 15.2v-15.2c-3.298 0-6.686 2.371-6.686 7.783-.09.95.022 1.908.327 2.812a6.782 6.782 0 001.44 2.434 6.734 6.734 0 005.07 2.171h-.151zm64.493-21.797v27.816h9.377l9.62-15.2v15.2h9.74V37.392h-9.377l-9.741 14.835V37.392h-9.619zm15.125-3.526a11.063 11.063 0 006.407-1.566 11.138 11.138 0 004.392-4.94l-6.322-2.37a4.412 4.412 0 01-1.661 2.546 4.37 4.37 0 01-2.907.858 4.253 4.253 0 01-2.931-.826 4.299 4.299 0 01-1.637-2.579l-6.352 2.371a11.233 11.233 0 004.446 4.933 11.154 11.154 0 006.444 1.543l.121.03zm20.872 11.522a13.268 13.268 0 017.139-2.372c1.18 0 3.872.244 3.872 2.463 0 2.219-2.359 2.37-3.267 2.37h-4.81v6.08h4.235c1.422 0 3.993 0 3.993 2.372 0 .942-.574 2.706-3.993 2.706a14.8 14.8 0 01-8.318-2.584l-2.39 6.657a24.53 24.53 0 0012.433 3.284c11.132 0 12.553-6.476 12.553-8.604a6.917 6.917 0 00-1.573-4.449 6.867 6.867 0 00-4.053-2.39 6.806 6.806 0 003.993-6.476c0-6.475-6.806-7.782-11.011-7.782-3.942.073-7.82.996-11.374 2.705l2.571 6.02zm58.836 19.79h9.741V54.112h8.924v11.066h9.71V37.392h-9.741v9.79h-8.923v-9.79h-9.741l.03 27.786zm-338.86 61.287H69.575V24.32h101.64v102.144zm-3.297-98.739H72.963v95.426h94.955V27.725z"/><path d="M120.456 87.096l-29.191 29.336-11.616-11.673L108.9 75.453l-6.05-6.08v-12.16l-4.235-4.256v10.488l-3.63 3.648L80.103 52.38l-3.63 3.649c.02-3.269.682-6.5 1.948-9.511a24.813 24.813 0 015.433-8.03 12.804 12.804 0 018.727-4.28c3.355-.222 6.663.89 9.211 3.094l14.762 14.957-3.751 3.77 7.653 7.812 7.744-7.782-3.751-3.77 14.702-15.017a12.754 12.754 0 019.211-3.107 12.772 12.772 0 018.727 4.292 24.825 24.825 0 015.432 8.03 24.91 24.91 0 011.949 9.511l-3.63-3.648-14.883 14.835-3.63-3.648v-10.58l-4.205 4.256v12.16l-6.05 6.08 29.191 29.336-11.616 11.643-29.191-29.336z"/></g></svg>